HIERARCHY
ROOT Hip
{
	OFFSET 0 0 0
	CHANNELS 6 Xposition Yposition Zposition Zrotation Yrotation Xrotation
	JOINT ShoulderCenter
	{
		OFFSET 0 43.63 0
		CHANNELS 3 Zrotation Yrotation Xrotation
		JOINT Head
		{
			OFFSET 0 18.49 0
			CHANNELS 3 Zrotation Yrotation Xrotation
			End Site
			{
				OFFSET 0.0 8.91 0.0
			}
		}
		JOINT ShoulderLeft
		{
			OFFSET -14 0 0
			CHANNELS 3 Zrotation Yrotation Xrotation
			JOINT ElbowLeft
			{
				OFFSET -25 0 0
				CHANNELS 3 Zrotation Yrotation Xrotation
				JOINT WristLeft
				{
					OFFSET -23 0 0
					CHANNELS 3 Zrotation Yrotation Xrotation
					End Site
					{
						OFFSET -8.32 0.0 0.0
					}
				}
			}
		}
		JOINT ShoulderRight
		{
			OFFSET 14 0 0
			CHANNELS 3 Zrotation Yrotation Xrotation
			JOINT ElbowRight
			{
				OFFSET 25 0 0
				CHANNELS 3 Zrotation Yrotation Xrotation
				JOINT WristRight
				{
					OFFSET 23 0 0
					CHANNELS 3 Zrotation Yrotation Xrotation
					End Site
					{
						OFFSET 8.32 0.0 0.0
					}
				}
			}
		}
	}
	JOINT HipLeft
	{
		OFFSET -9.52 0 0
		CHANNELS 3 Zrotation Yrotation Xrotation
		JOINT KneeLeft
		{
			OFFSET 0 -37.32 0
			CHANNELS 3 Zrotation Yrotation Xrotation
			JOINT AnkleLeft
			{
				OFFSET 0 -34.6 0
				CHANNELS 3 Zrotation Yrotation Xrotation
				End Site
				{
					OFFSET 0.0 0.0 8.91
				}
			}
		}
	}
	JOINT HipRight
	{
		OFFSET 9.52 0 0
		CHANNELS 3 Zrotation Yrotation Xrotation
		JOINT KneeRight
		{
			OFFSET 0 -37.32 0
			CHANNELS 3 Zrotation Yrotation Xrotation
			JOINT AnkleRight
			{
				OFFSET 0 -34.6 0
				CHANNELS 3 Zrotation Yrotation Xrotation
				End Site
				{
					OFFSET 0.0 0.0 8.91
				}
			}
		}
	}
}
MOTION
Frames: 21
Frame Time: 0.033333
-1.37544 -68.2011 -187.688 -0.264605 -0.00155015 -10.1534 -1.67854 2.79744 29.1645 0 0 3.33505e-09 81.521 16.5714 27.2381 -3.78853 14.6202 0.331249 0 0 0 -79.2257 -18.5622 11.8333 -0.944 -22.131 1.89154 0 0 0 -13.541 4.25796 29.4265 17.9467 0.49721 -13.0569 0 0 0 6.91519 -1.87876 22.0637 -6.02448 -0.00757154 -2.76966 0 0 0 
-1.37544 -68.0332 -187.725 -0.276601 0.0681357 -9.55828 -0.729594 3.6575 27.8988 0 0 0 81.235 10.915 25.6749 -6.13638 18.7749 0.462678 0 0 0 -79.6698 -17.3848 13.1299 -2.17147 -18.5316 1.91167 0 0 0 -13.2832 4.58991 28.8856 17.8354 0.246688 -13.5287 0 0 0 6.9801 -1.39978 20.9971 -5.78387 -0.0416152 -2.26118 0 0 0 
-1.37544 -68.2011 -187.688 -0.0876701 0.0423865 -9.56776 -0.718465 3.63982 27.9097 -5.33609e-08 0 0 81.026 10.9011 25.6523 -6.989 18.2166 0.182778 0 0 0 -78.6473 -21.9204 12.9404 -4.03683 -13.8434 1.36824 0 0 0 -13.7831 4.07304 28.8577 17.8976 0.495918 -13.6007 -1.33402e-08 2.13443e-07 -4.20217e-07 7.93461 -2.02728 21.4216 -7.95015 -0.0425346 -2.70967 0 0 0 
-1.37544 -68.2011 -187.688 -0.0875413 0.0423161 -9.57218 -0.660049 3.75217 27.9811 2.13443e-07 0 0 81.0012 10.9439 25.5151 -6.989 18.2166 0.182778 0 0 0 -78.8039 -22.1131 13.1068 -4.75234 -10.4789 1.18602 0 0 0 -13.7922 4.05731 28.8613 17.8747 0.494632 -13.8609 0 0 0 7.93434 -2.0278 21.426 -7.95015 -0.0425346 -2.70967 0 0 0 
-1.37544 -68.2011 -187.688 -0.025396 0.0527949 -9.57218 -0.806521 3.78657 27.9804 0 0 0 81.6284 11.1109 25.6765 -7.42134 17.8233 0.170565 0 0 0 -79.74 -17.2915 13.2278 -1.16569 -18.3971 1.56609 0 0 0 -13.8552 4.05733 28.8614 17.8747 0.494632 -13.8609 0 0 0 7.89871 -1.95804 21.4251 -7.98892 -0.0791925 -4.96769 0 -1.06722e-07 0 
-1.22643 -67.9642 -187.74 0.234535 0.170135 -9.56818 -1.11523 4.01311 28.1183 0 0 0 81.8174 11.2225 25.424 -6.93003 18.1503 0.345674 0 0 0 -79.797 -22.5184 13.793 -3.07373 -9.8538 0.998471 0 0 0 -12.6135 4.55918 29.0363 16.6487 0.167147 -14.0078 0 2.13443e-07 0 5.59134 -0.950868 20.858 -5.67751 -0.0798309 -2.06463 0 0 0 
-1.22643 -67.9642 -187.74 0.349084 0.189785 -9.55878 -1.5059 3.8403 27.9661 0 0 0 82.3755 16.257 26.3934 -3.35166 9.79368 0.46554 0 0 0 -79.8828 -22.7021 13.6741 -2.68797 -9.39588 0.926992 0 0 0 -12.7304 4.55686 29.0275 16.6487 0.167147 -14.0078 0 2.13443e-07 0 5.47317 -0.955858 20.849 -5.66918 -0.0674468 -1.75028 0 0 0 
-1.37544 -67.9642 -187.74 0.191809 0.160294 -9.5682 -1.21965 4.10051 28.359 5.33609e-08 7.92033e-16 -1.70088e-06 82.1398 16.3049 25.9699 -3.71198 9.94028 0.409712 0 0 0 -79.2625 -23.3094 13.6333 -4.40391 -9.62838 1.12663 0 -1.06722e-07 0 -12.7886 4.27356 29.0169 17.584 0.38731 -13.8564 0 0 -4.20217e-07 5.48165 -0.934036 20.8641 -5.51968 -0.0662571 -1.75709 0 0 0 
-1.54737 -67.9642 -187.74 0.0114807 0.127468 -9.57298 -0.970301 4.22292 28.4375 0 0 0 82.0489 16.2618 25.7944 -3.69839 10.0675 0.417141 0 0 0 -79.2652 -23.3572 13.7434 -3.18153 -13.0744 1.23634 0 0 0 -11.5025 4.08403 29.141 16.441 0.401089 -14.0024 0 -1.33402e-08 0 5.65876 -0.94804 20.8687 -5.5198 -0.065986 -1.78257 0 0 2.08441e-10 
-1.57029 -68.2011 -187.688 -0.113451 0.0328808 -9.58139 -0.740865 4.11079 28.3721 2.13443e-07 -4.26887e-07 6.67011e-09 81.169 11.2851 25.183 -6.96169 18.2329 0.182957 0 0 0 -79.488 -23.3489 13.6754 -3.43965 -13.1207 1.31534 0 0 0 -10.47 3.4676 29.2345 14.4821 0.531892 -14.0397 -1.33402e-08 5.04727e-17 4.33557e-07 6.00603 -1.52493 22.0326 -6.58877 -0.0830674 -3.24996 5.33609e-08 0 0 
-1.54737 -68.2011 -187.688 -0.21366 0.0304547 -9.00457 -1.17817 2.87158 27.0989 0 0 0 81.9125 10.8686 26.757 -7.85441 17.6735 0.0590122 0 0 0 -78.7966 -18.3308 12.1127 -2.63659 -17.0415 1.6319 0 0 0 -11.5252 3.51884 28.5579 15.8209 0.566236 -13.8853 0 0 0 6.98448 -1.64632 20.9166 -7.46346 -0.0638861 -2.44009 0 0 0 
-1.54737 -68.2011 -187.688 -0.213051 0.0326093 -9.02083 -1.42575 3.44457 27.3208 0 0 0 83.1514 11.0938 26.5481 -8.17539 17.5043 0.175162 0 0 0 -78.7134 -19.0162 12.5931 -1.55857 -16.5354 1.32648 0 0 0 -12.5896 3.77411 28.457 16.7628 0.506051 -13.7687 0 0 0 8.25352 -1.96104 21.3706 -8.76826 -0.084822 -3.16726 0 0 0 
-2.02521 -68.2011 -187.688 -1.06426 -0.0985971 -9.01394 -0.577749 3.29802 27.2446 0 0 0 81.7249 10.9384 26.3226 -6.989 18.2166 0.182778 0 0 0 -79.1938 -13.8072 11.7985 -2.57445e-07 -25.1483 -3.44159e-06 0 0 0 -10.4526 3.79555 28.5843 14.8881 0.335661 -14.0243 0 2.13443e-07 0 13.5028 -2.65771 21.061 -13.2443 -0.084104 -2.86191 0 0 0 
-1.54737 -68.0332 -187.725 -1.14355 -0.181309 -9.00806 -0.0775373 3.27322 27.3126 0 0 -1.70755e-06 82.7622 11.0832 26.597 -8.23044 17.4711 0.174803 0 0 0 -80.0692 -14.0562 13.7473 1.2515e-06 -25.1639 -2.7933e-07 0 0 0 -10.7945 2.95422 28.3963 15.2016 0.739006 -16.1937 0 0 0 10.2645 -2.45659 21.3057 -10.0978 -0.0626542 -5.6978 0 -1.06722e-07 0 
-1.50343 -68.1631 -188.311 -2.03386 3.4686 -8.97072 1.42558 0.563383 27.9466 0 0 0 81.4279 11.5366 24.8927 -7.62736 17.8474 0.248525 0 0 0 -80.9621 -18.9523 15.0811 0.627853 -17.2324 -0.501402 0 0 0 -8.96749 2.38857 25.467 14.0189 0.654404 -10.6733 0 0 0 11.6812 -2.35329 16.7114 -9.30351 0.0330528 -1.3559 0 0 0 
-1.50343 -68.1251 -188.934 -1.47029 -0.134987 -8.3021 1.4612 4.14897 28.4896 6.34869e-15 -4.26887e-07 -1.70421e-06 81.2576 12.5196 24.7309 -7.61403 17.9799 0.257695 0 0 0 -81.4454 -20.7237 15.009 1.40047 -16.74 -0.643026 0 0 0 -10.9278 3.03098 21.0876 14.7712 0.0784604 -4.67626 0 0 0 10.586 -1.61102 16.4202 -9.04497 -0.026412 -1.75949 0 0 0 
-1.53573 -68.3899 -188.875 -1.48375 -0.262439 -8.30909 2.06444 3.37815 28.5831 0 0 0 78.1778 12.6288 24.6242 -4.01632 19.9661 0.8325 0 0 0 -81.9209 -20.296 14.3752 0.0888583 -13.044 -0.237935 0 0 0 -11.278 2.40462 21.0494 15.1144 0.21522 -4.44981 0 0 0 8.1731 -1.97979 17.2279 -5.32627 0.102249 -2.61898 0 0 0 
-2.40059 -67.9027 -188.368 -0.453088 -3.4956 -8.94892 0.374987 6.06446 28.1632 -1.06722e-07 -2.66804e-08 -1.70755e-06 78.0079 17.2126 18.3218 2.1009e-06 22.9237 4.25975e-07 0 0 0 -79.2486 -18.6838 12.8445 -3.80871 -10.4085 0.271374 0 0 0 -8.61383 2.83982 24.3469 12.0848 0.222989 -9.50585 0 0 0 4.03482 -0.131848 9.32584 -2.1812 -0.032892 13.3641 0 0 0 
-4.04166 -67.69 -187.852 0.898981 -7.30812 -9.61471 -0.710487 12.5825 28.5586 0 0 0 64.6756 22.0402 18.9841 1.22594e-06 36.5145 -1.39364e-06 0 0 0 -84.7752 -10.1815 16.3549 2.43444 -17.4522 1.10022 0 0 0 -10.571 3.49477 22.0389 12.2704 -0.0596021 -5.18512 0 0 0 11.6942 0.123419 10.3413 -11.7619 0.569687 13.2489 0 0 0 
-4.04166 -67.4469 -187.906 1.05597 -7.30889 -10.8332 -0.61311 15.8407 31.6915 0 0 0 64.977 22.5959 15.4103 1.22594e-06 36.5145 -1.39364e-06 0 0 0 -83.5192 -11.6976 18.8604 2.41291 -17.6719 1.1559 0 0 0 -10.375 3.71224 22.6441 11.9894 -0.0707752 -4.44683 0 8.67114e-07 0 11.0243 0.369811 10.8183 -11.9396 0.899143 14.5576 0 0 0 
-4.04166 -67.3523 -187.927 1.05908 -7.31676 -10.8383 -0.40166 16.1769 31.7062 0 0 0 64.84 22.3883 15.0544 1.22594e-06 36.5145 -1.39364e-06 0 0 0 -83.6996 -12.1183 19.325 2.37554 -17.2877 1.12805 0 0 0 -12.1765 3.48633 22.1165 14.8753 0.0341999 -3.02787 0 0 0 11.1158 1.03553 10.7887 -14.45 1.50049 14.5159 0 0 0 
